<svg version="1.1" id="Capa_1" xmlns="http://www.w3.org/2000/svg" x="0" y="0" width="553.289" height="553.289" style="enable-background:new 0 0 553.289 553.289" xml:space="preserve"><path d="M293.522 2.039c165.24-15.3 279.072 178.092 257.04 325.583-22.032 145.044-171.36 242.965-312.732 221.545C88.502 527.135-16.762 385.763 2.21 237.659 20.57 96.899 144.806-14.485 286.179 6.323c1.836-2.448 3.672-4.284 7.343-4.284zm151.165 331.703c8.568-97.307-39.168-230.111-150.552-239.903-2.448 0-4.284-1.224-5.509-1.836-5.508-.612-11.016-1.224-15.912-1.836-43.452 5.508-82.62 16.524-113.832 51.408-29.988 32.436-48.348 81.396-51.408 124.848-6.12 85.68 39.78 168.3 121.176 198.899 97.92 37.332 206.245-25.704 216.037-131.58z"/></svg>